<mxfile host="app.diagrams.net" modified="2021-06-24T12:32:01.238Z" agent="5.0 (Windows NT 10.0; Win64; x64) AppleWebKit/537.36 (KHTML, like Gecko) Chrome/91.0.4472.114 Safari/537.36" etag="LcVLi_33YR08QaIx9Znw" version="14.8.0" type="github" pages="2">
  <diagram id="MGbgdp2Lxw32QhVH5nSW" name="Page-1">
    <mxGraphModel dx="1038" dy="547" grid="1" gridSize="10" guides="1" tooltips="1" connect="1" arrows="1" fold="1" page="1" pageScale="1" pageWidth="827" pageHeight="1169" math="0" shadow="0">
      <root>
        <mxCell id="co1m5Sgv-fnZT-JFyoJU-0" />
        <mxCell id="co1m5Sgv-fnZT-JFyoJU-1" parent="co1m5Sgv-fnZT-JFyoJU-0" />
        <mxCell id="h_oNWVTWleW_YzQ21fK8-5" value="接口" style="html=1;verticalLabelPosition=bottom;align=center;labelBackgroundColor=#ffffff;verticalAlign=top;strokeWidth=2;strokeColor=#0080F0;shadow=0;dashed=0;shape=mxgraph.ios7.icons.cloud;" parent="co1m5Sgv-fnZT-JFyoJU-1" vertex="1">
          <mxGeometry x="210" y="480" width="70" height="40" as="geometry" />
        </mxCell>
        <mxCell id="h_oNWVTWleW_YzQ21fK8-22" style="edgeStyle=orthogonalEdgeStyle;rounded=0;orthogonalLoop=1;jettySize=auto;html=1;entryX=0.5;entryY=0;entryDx=0;entryDy=0;" parent="co1m5Sgv-fnZT-JFyoJU-1" source="h_oNWVTWleW_YzQ21fK8-6" target="h_oNWVTWleW_YzQ21fK8-7" edge="1">
          <mxGeometry relative="1" as="geometry" />
        </mxCell>
        <mxCell id="h_oNWVTWleW_YzQ21fK8-23" value="" style="edgeStyle=orthogonalEdgeStyle;rounded=0;orthogonalLoop=1;jettySize=auto;html=1;" parent="co1m5Sgv-fnZT-JFyoJU-1" source="h_oNWVTWleW_YzQ21fK8-6" target="h_oNWVTWleW_YzQ21fK8-7" edge="1">
          <mxGeometry relative="1" as="geometry" />
        </mxCell>
        <mxCell id="h_oNWVTWleW_YzQ21fK8-6" value="网关，鉴权" style="outlineConnect=0;fontColor=#232F3E;gradientColor=none;fillColor=#5A30B5;strokeColor=none;dashed=0;verticalLabelPosition=bottom;verticalAlign=top;align=center;html=1;fontSize=12;fontStyle=0;aspect=fixed;pointerEvents=1;shape=mxgraph.aws4.vpn_gateway;" parent="co1m5Sgv-fnZT-JFyoJU-1" vertex="1">
          <mxGeometry x="335" y="220" width="60" height="60" as="geometry" />
        </mxCell>
        <mxCell id="h_oNWVTWleW_YzQ21fK8-16" style="edgeStyle=orthogonalEdgeStyle;rounded=0;orthogonalLoop=1;jettySize=auto;html=1;" parent="co1m5Sgv-fnZT-JFyoJU-1" source="h_oNWVTWleW_YzQ21fK8-7" target="h_oNWVTWleW_YzQ21fK8-15" edge="1">
          <mxGeometry relative="1" as="geometry" />
        </mxCell>
        <mxCell id="h_oNWVTWleW_YzQ21fK8-17" style="edgeStyle=orthogonalEdgeStyle;rounded=0;orthogonalLoop=1;jettySize=auto;html=1;" parent="co1m5Sgv-fnZT-JFyoJU-1" source="h_oNWVTWleW_YzQ21fK8-7" target="h_oNWVTWleW_YzQ21fK8-5" edge="1">
          <mxGeometry relative="1" as="geometry" />
        </mxCell>
        <mxCell id="h_oNWVTWleW_YzQ21fK8-18" style="edgeStyle=orthogonalEdgeStyle;rounded=0;orthogonalLoop=1;jettySize=auto;html=1;" parent="co1m5Sgv-fnZT-JFyoJU-1" source="h_oNWVTWleW_YzQ21fK8-7" target="h_oNWVTWleW_YzQ21fK8-8" edge="1">
          <mxGeometry relative="1" as="geometry" />
        </mxCell>
        <mxCell id="h_oNWVTWleW_YzQ21fK8-19" style="edgeStyle=orthogonalEdgeStyle;rounded=0;orthogonalLoop=1;jettySize=auto;html=1;entryX=0.6;entryY=0.055;entryDx=0;entryDy=0;entryPerimeter=0;" parent="co1m5Sgv-fnZT-JFyoJU-1" source="h_oNWVTWleW_YzQ21fK8-7" target="h_oNWVTWleW_YzQ21fK8-9" edge="1">
          <mxGeometry relative="1" as="geometry" />
        </mxCell>
        <mxCell id="h_oNWVTWleW_YzQ21fK8-21" style="edgeStyle=orthogonalEdgeStyle;rounded=0;orthogonalLoop=1;jettySize=auto;html=1;" parent="co1m5Sgv-fnZT-JFyoJU-1" source="h_oNWVTWleW_YzQ21fK8-7" target="h_oNWVTWleW_YzQ21fK8-10" edge="1">
          <mxGeometry relative="1" as="geometry" />
        </mxCell>
        <mxCell id="h_oNWVTWleW_YzQ21fK8-7" value="注册中心" style="aspect=fixed;perimeter=ellipsePerimeter;html=1;align=center;shadow=0;dashed=0;fontColor=#4277BB;labelBackgroundColor=#ffffff;fontSize=12;spacingTop=3;image;image=img/lib/ibm/data/device_registry.svg;" parent="co1m5Sgv-fnZT-JFyoJU-1" vertex="1">
          <mxGeometry x="330" y="330" width="70" height="70" as="geometry" />
        </mxCell>
        <mxCell id="h_oNWVTWleW_YzQ21fK8-8" value="数据统计" style="html=1;verticalLabelPosition=bottom;align=center;labelBackgroundColor=#ffffff;verticalAlign=top;strokeWidth=2;strokeColor=#0080F0;shadow=0;dashed=0;shape=mxgraph.ios7.icons.cloud;" parent="co1m5Sgv-fnZT-JFyoJU-1" vertex="1">
          <mxGeometry x="330" y="480" width="70" height="40" as="geometry" />
        </mxCell>
        <mxCell id="h_oNWVTWleW_YzQ21fK8-9" value="账单算费" style="html=1;verticalLabelPosition=bottom;align=center;labelBackgroundColor=#ffffff;verticalAlign=top;strokeWidth=2;strokeColor=#0080F0;shadow=0;dashed=0;shape=mxgraph.ios7.icons.cloud;" parent="co1m5Sgv-fnZT-JFyoJU-1" vertex="1">
          <mxGeometry x="440" y="480" width="70" height="40" as="geometry" />
        </mxCell>
        <mxCell id="h_oNWVTWleW_YzQ21fK8-10" value="流程" style="html=1;verticalLabelPosition=bottom;align=center;labelBackgroundColor=#ffffff;verticalAlign=top;strokeWidth=2;strokeColor=#0080F0;shadow=0;dashed=0;shape=mxgraph.ios7.icons.cloud;" parent="co1m5Sgv-fnZT-JFyoJU-1" vertex="1">
          <mxGeometry x="560" y="480" width="70" height="40" as="geometry" />
        </mxCell>
        <mxCell id="h_oNWVTWleW_YzQ21fK8-15" value="塔表业务" style="html=1;verticalLabelPosition=bottom;align=center;labelBackgroundColor=#ffffff;verticalAlign=top;strokeWidth=2;strokeColor=#0080F0;shadow=0;dashed=0;shape=mxgraph.ios7.icons.cloud;" parent="co1m5Sgv-fnZT-JFyoJU-1" vertex="1">
          <mxGeometry x="90" y="480" width="70" height="40" as="geometry" />
        </mxCell>
      </root>
    </mxGraphModel>
  </diagram>
  <diagram id="bKRceDh-EXXHuzMqZFQp" name="Page-2">
    <mxGraphModel dx="1038" dy="547" grid="1" gridSize="10" guides="1" tooltips="1" connect="1" arrows="1" fold="1" page="1" pageScale="1" pageWidth="827" pageHeight="1169" math="0" shadow="0">
      <root>
        <mxCell id="Y6Tw_DnnWBDdsK32zzTm-0" />
        <mxCell id="Y6Tw_DnnWBDdsK32zzTm-1" parent="Y6Tw_DnnWBDdsK32zzTm-0" />
      </root>
    </mxGraphModel>
  </diagram>
</mxfile>
